<svg xmlns="http://www.w3.org/2000/svg" id="Layer_2" viewBox="0 0 542.99 117.95"><g id="Layer_1-2"><path d="m183.68,61.85c60.85-19.51,121.7-39.02,182.55-58.53.5-.16,1.03-.13,1.51.07,57.98,25.12,115.97,50.23,173.95,75.35.8.35,1.31,1.14,1.3,2.01l-.48,35.07c-.02,1.5-1.52,2.52-2.92,1.98-57.29-21.82-114.59-43.64-171.88-65.46-.46-.17-.96-.19-1.42-.04-60.85,19.51-121.7,39.02-182.55,58.53-.47.15-.98.14-1.45-.05L1.37,39.61C.54,39.28,0,38.49,0,37.6.03,25.78.07,13.97.1,2.15.11.67,1.56-.36,2.96.12c59.79,20.57,119.57,41.15,179.36,61.72.44.15.92.16,1.36.01Z"></path></g></svg>